<svg width="26" height="19" viewBox="0 0 26 19" fill="none" xmlns="http://www.w3.org/2000/svg">
<path fill-rule="evenodd" clip-rule="evenodd" d="M23.0568 1.12537C22.7535 0.829182 22.2598 0.829182 21.9586 1.12537L10.3853 12.2992C10.082 12.5974 9.58725 12.5974 9.28604 12.2992L4.21515 7.29012C4.06507 7.14152 3.8684 7.06823 3.6707 7.06722C3.47093 7.06622 3.26805 7.13951 3.11589 7.29012L0.874931 9.24396C0.725878 9.39256 0.645142 9.5783 0.645142 9.77208C0.645142 9.96686 0.725878 10.1707 0.875966 10.3183L5.98929 15.5232C6.29154 15.8204 6.78734 16.3023 7.08855 16.5975L9.28708 18.7471C9.58932 19.0413 10.0831 19.0413 10.3863 18.7471L25.2564 4.34931C25.5597 4.05413 25.5597 3.56918 25.2564 3.274L23.0568 1.12537Z" fill="white"/>
</svg>
