<svg width="25" height="29" viewBox="0 0 25 29" fill="none" xmlns="http://www.w3.org/2000/svg">
<path d="M12.5 23.1818C12.7472 23.1818 12.9889 23.1063 13.1945 22.9648C13.4 22.8233 13.5602 22.6221 13.6549 22.3868C13.7495 22.1515 13.7742 21.8925 13.726 21.6427C13.6778 21.3929 13.5587 21.1634 13.3839 20.9833C13.2091 20.8032 12.9863 20.6805 12.7439 20.6308C12.5014 20.5811 12.2501 20.6066 12.0216 20.7041C11.7932 20.8016 11.598 20.9666 11.4607 21.1784C11.3233 21.3902 11.25 21.6392 11.25 21.8939C11.25 22.2355 11.3817 22.5631 11.6161 22.8046C11.8505 23.0461 12.1685 23.1818 12.5 23.1818ZM18.75 23.1818C18.9972 23.1818 19.2389 23.1063 19.4445 22.9648C19.65 22.8233 19.8102 22.6221 19.9049 22.3868C19.9995 22.1515 20.0242 21.8925 19.976 21.6427C19.9277 21.3929 19.8087 21.1634 19.6339 20.9833C19.4591 20.8032 19.2363 20.6805 18.9939 20.6308C18.7514 20.5811 18.5001 20.6066 18.2716 20.7041C18.0432 20.8016 17.848 20.9666 17.7107 21.1784C17.5733 21.3902 17.5 21.6392 17.5 21.8939C17.5 22.2355 17.6317 22.5631 17.8661 22.8046C18.1005 23.0461 18.4185 23.1818 18.75 23.1818ZM18.75 18.0303C18.9972 18.0303 19.2389 17.9548 19.4445 17.8133C19.65 17.6717 19.8102 17.4706 19.9049 17.2353C19.9995 16.9999 20.0242 16.741 19.976 16.4912C19.9277 16.2413 19.8087 16.0119 19.6339 15.8318C19.4591 15.6516 19.2363 15.529 18.9939 15.4793C18.7514 15.4296 18.5001 15.4551 18.2716 15.5526C18.0432 15.6501 17.848 15.8151 17.7107 16.0269C17.5733 16.2387 17.5 16.4877 17.5 16.7424C17.5 17.084 17.6317 17.4116 17.8661 17.6531C18.1005 17.8946 18.4185 18.0303 18.75 18.0303ZM12.5 18.0303C12.7472 18.0303 12.9889 17.9548 13.1945 17.8133C13.4 17.6717 13.5602 17.4706 13.6549 17.2353C13.7495 16.9999 13.7742 16.741 13.726 16.4912C13.6778 16.2413 13.5587 16.0119 13.3839 15.8318C13.2091 15.6516 12.9863 15.529 12.7439 15.4793C12.5014 15.4296 12.2501 15.4551 12.0216 15.5526C11.7932 15.6501 11.598 15.8151 11.4607 16.0269C11.3233 16.2387 11.25 16.4877 11.25 16.7424C11.25 17.084 11.3817 17.4116 11.6161 17.6531C11.8505 17.8946 12.1685 18.0303 12.5 18.0303ZM21.25 2.57576H20V1.28788C20 0.946312 19.8683 0.618735 19.6339 0.377211C19.3995 0.135687 19.0815 0 18.75 0C18.4185 0 18.1005 0.135687 17.8661 0.377211C17.6317 0.618735 17.5 0.946312 17.5 1.28788V2.57576H7.5V1.28788C7.5 0.946312 7.3683 0.618735 7.13388 0.377211C6.89946 0.135687 6.58152 0 6.25 0C5.91848 0 5.60054 0.135687 5.36612 0.377211C5.1317 0.618735 5 0.946312 5 1.28788V2.57576H3.75C2.75544 2.57576 1.80161 2.98282 1.09835 3.70739C0.395088 4.43196 0 5.41469 0 6.43939V24.4697C0 25.4944 0.395088 26.4771 1.09835 27.2017C1.80161 27.9263 2.75544 28.3333 3.75 28.3333H21.25C22.2446 28.3333 23.1984 27.9263 23.9017 27.2017C24.6049 26.4771 25 25.4944 25 24.4697V6.43939C25 5.41469 24.6049 4.43196 23.9017 3.70739C23.1984 2.98282 22.2446 2.57576 21.25 2.57576ZM22.5 24.4697C22.5 24.8113 22.3683 25.1388 22.1339 25.3804C21.8995 25.6219 21.5815 25.7576 21.25 25.7576H3.75C3.41848 25.7576 3.10054 25.6219 2.86612 25.3804C2.6317 25.1388 2.5 24.8113 2.5 24.4697V12.8788H22.5V24.4697ZM22.5 10.303H2.5V6.43939C2.5 6.09783 2.6317 5.77025 2.86612 5.52873C3.10054 5.2872 3.41848 5.15152 3.75 5.15152H5V6.43939C5 6.78096 5.1317 7.10854 5.36612 7.35006C5.60054 7.59159 5.91848 7.72727 6.25 7.72727C6.58152 7.72727 6.89946 7.59159 7.13388 7.35006C7.3683 7.10854 7.5 6.78096 7.5 6.43939V5.15152H17.5V6.43939C17.5 6.78096 17.6317 7.10854 17.8661 7.35006C18.1005 7.59159 18.4185 7.72727 18.75 7.72727C19.0815 7.72727 19.3995 7.59159 19.6339 7.35006C19.8683 7.10854 20 6.78096 20 6.43939V5.15152H21.25C21.5815 5.15152 21.8995 5.2872 22.1339 5.52873C22.3683 5.77025 22.5 6.09783 22.5 6.43939V10.303ZM6.25 18.0303C6.49723 18.0303 6.7389 17.9548 6.94446 17.8133C7.15002 17.6717 7.31024 17.4706 7.40485 17.2353C7.49946 16.9999 7.52421 16.741 7.47598 16.4912C7.42775 16.2413 7.3087 16.0119 7.13388 15.8318C6.95907 15.6516 6.73634 15.529 6.49386 15.4793C6.25139 15.4296 6.00005 15.4551 5.77165 15.5526C5.54324 15.6501 5.34801 15.8151 5.21066 16.0269C5.07331 16.2387 5 16.4877 5 16.7424C5 17.084 5.1317 17.4116 5.36612 17.6531C5.60054 17.8946 5.91848 18.0303 6.25 18.0303ZM6.25 23.1818C6.49723 23.1818 6.7389 23.1063 6.94446 22.9648C7.15002 22.8233 7.31024 22.6221 7.40485 22.3868C7.49946 22.1515 7.52421 21.8925 7.47598 21.6427C7.42775 21.3929 7.3087 21.1634 7.13388 20.9833C6.95907 20.8032 6.73634 20.6805 6.49386 20.6308C6.25139 20.5811 6.00005 20.6066 5.77165 20.7041C5.54324 20.8016 5.34801 20.9666 5.21066 21.1784C5.07331 21.3902 5 21.6392 5 21.8939C5 22.2355 5.1317 22.5631 5.36612 22.8046C5.60054 23.0461 5.91848 23.1818 6.25 23.1818Z" fill="white"/>
</svg>
